<?xml version="1.0" encoding="utf-8"?>
<!-- Generator: Adobe Illustrator 19.2.1, SVG Export Plug-In . SVG Version: 6.00 Build 0)  -->
<svg version="1.1" id="Layer_1" xmlns="http://www.w3.org/2000/svg" xmlns:xlink="http://www.w3.org/1999/xlink" x="0px" y="0px"
	 width="36px" height="36px" viewBox="0 0 36 36" style="enable-background:new 0 0 36 36;" xml:space="preserve">
<style type="text/css">
	.st0{fill:#FA4516;}
	.st1{fill:#FFFFFF;}
</style>
<rect class="st0" width="36" height="36"/>
<g>
	<path class="st1" d="M116.4,14.7"/>
</g>
<path class="st1" d="M20.8,15.4l-0.9,5.3c-0.2,1.2-0.5,1.8-2.2,1.8h-2.2l1.6-8.9h2c1.4,0,1.8,0.4,1.8,1.2
	C20.9,14.9,20.9,15.1,20.8,15.4 M19.9,10.7h-5.6l-2.6,14.7h6c4.2,0,5-1.8,5.3-3.8l1.1-6.5c0-0.3,0.1-0.6,0.1-0.8
	C24.2,12.4,23,10.7,19.9,10.7"/>
</svg>
